<svg xmlns="http://www.w3.org/2000/svg" width="520" height="520" viewBox="0 0 520 520">
  <defs>
    <linearGradient id="g" x1="0" x2="1" y1="0" y2="1">
      <stop offset="0" stop-color="#ffe6be"/>
      <stop offset="1" stop-color="#f2b06a"/>
    </linearGradient>
    <filter id="shadow" x="-20%" y="-20%" width="140%" height="140%">
      <feDropShadow dx="0" dy="8" stdDeviation="10" flood-color="#2a2340" flood-opacity="0.18"/>
    </filter>
  </defs>
  <g opacity="0.95">
    <path d="M92 116 l10 24 24 10-24 10-10 24-10-24-24-10 24-10z" fill="#ffffff"/>
    <path d="M430 110 l8 18 18 8-18 8-8 18-8-18-18-8 18-8z" fill="#ffffff" opacity="0.9"/>
    <path d="M430 410 l10 24 24 10-24 10-10 24-10-24-24-10 24-10z" fill="#ffffff" opacity="0.85"/>
  </g>
  <g filter="url(#shadow)">
    <path d="M165 120
             C120 140, 102 202, 112 270
             C122 356, 190 415, 270 410
             C350 405, 415 342, 407 255
             C399 170, 323 105, 240 110
             C205 112, 185 115, 165 120Z"
          fill="url(#g)" stroke="#e2a25a" stroke-width="10" stroke-linecap="round"/>
    <ellipse cx="205" cy="285" rx="32" ry="20" fill="#ff95b8" opacity="0.55"/>
    <ellipse cx="320" cy="285" rx="32" ry="20" fill="#ff95b8" opacity="0.55"/>
    <circle cx="225" cy="250" r="20" fill="#2a2340"/>
    <circle cx="300" cy="250" r="20" fill="#2a2340"/>
    <circle cx="218" cy="243" r="6" fill="#ffffff" opacity="0.9"/>
    <circle cx="293" cy="243" r="6" fill="#ffffff" opacity="0.9"/>
    <path d="M245 302 C260 318, 270 318, 285 302" fill="none" stroke="#2a2340" stroke-width="10" stroke-linecap="round"/>
  </g>
  <g transform="translate(260 150) rotate(-12) translate(-260 -150)">
    <path d="M240 130 C225 116, 198 120, 194 144 C190 170, 220 186, 240 168 Z" fill="#f2c8ff" stroke="#b19cff" stroke-width="6"/>
    <path d="M280 130 C295 116, 322 120, 326 144 C330 170, 300 186, 280 168 Z" fill="#f2c8ff" stroke="#b19cff" stroke-width="6"/>
    <circle cx="260" cy="150" r="18" fill="#ffffff" stroke="#b19cff" stroke-width="6"/>
  </g>
  <text x="260" y="470" font-size="44" font-family="system-ui, -apple-system, Segoe UI, Roboto, sans-serif" text-anchor="middle" fill="#9a7cff" opacity="0.95">감자</text>
</svg>
